<?xml version="1.0" encoding="UTF-8"?>
<svg version="1.1" xmlns="http://www.w3.org/2000/svg" width="680" height="680">
<path d="M0 0 C224.4 0 448.8 0 680 0 C680 224.4 680 448.8 680 680 C455.6 680 231.2 680 0 680 C0 455.6 0 231.2 0 0 Z " fill="#F2EEE3" transform="translate(0,0)"/>
<path d="M0 0 C0.89596748 -0.00320648 1.79193496 -0.00641296 2.71505296 -0.0097166 C5.73893551 -0.01806544 8.76262251 -0.01207527 11.78650856 -0.00622082 C13.96770535 -0.00923928 16.14890109 -0.01312721 18.33009493 -0.01781338 C24.3409245 -0.02814157 30.35169474 -0.02589934 36.36252928 -0.02163279 C42.8384418 -0.01917427 49.31433972 -0.02816882 55.79024696 -0.03567028 C68.48385906 -0.04886851 81.17745231 -0.05021353 93.87106989 -0.04787002 C104.18509525 -0.04603887 114.49911439 -0.04779322 124.81313896 -0.05209446 C126.29383775 -0.05269685 127.77453653 -0.05329805 129.25523532 -0.05389806 C131.48638698 -0.0548053 133.71753865 -0.05571396 135.94869031 -0.05663041 C156.69903968 -0.0650628 177.4493867 -0.06939368 198.19973755 -0.06522369 C199.3736641 -0.06498913 199.3736641 -0.06498913 200.57130635 -0.06474983 C204.53810984 -0.06394402 208.50491332 -0.06309825 212.47171681 -0.06223653 C213.25956535 -0.06206544 214.04741389 -0.06189435 214.85913662 -0.06171808 C216.4523587 -0.06137142 218.04558077 -0.06102289 219.63880284 -0.06067249 C244.43151121 -0.05531481 269.22418402 -0.06324586 294.01688576 -0.08170605 C321.85882734 -0.10241226 349.70074688 -0.11315138 377.5426966 -0.10913056 C380.5101939 -0.1087352 383.47769121 -0.10837366 386.44518852 -0.10803318 C387.54123262 -0.10789708 387.54123262 -0.10789708 388.65941902 -0.10775824 C399.70036094 -0.10659121 410.74128065 -0.11324854 421.78221703 -0.1238451 C434.33610978 -0.13588129 446.88995002 -0.13719539 459.44384359 -0.12505493 C465.85259201 -0.11914647 472.26124456 -0.11812095 478.66998672 -0.13005733 C484.53234256 -0.14084944 490.3945217 -0.13789277 496.25686903 -0.12379565 C498.3820103 -0.12113022 500.50716512 -0.12357257 502.63229315 -0.13153151 C505.51317004 -0.14157518 508.3934253 -0.13326896 511.27427673 -0.12025452 C512.10607 -0.12756386 512.93786327 -0.13487321 513.79486239 -0.14240405 C518.69168738 -0.09631413 521.99545173 0.59418523 526.26297951 3.25447559 C527.90751076 4.97322559 527.90751076 4.97322559 529.07547951 6.75447559 C529.47379982 7.34228809 529.87212013 7.93010059 530.28251076 8.53572559 C532.3054981 12.08199823 532.3874672 15.0501157 532.38602734 19.04284668 C532.38801838 20.25755809 532.39000943 21.4722695 532.39206082 22.72379035 C532.3892076 24.07876077 532.386262 25.43373101 532.38323402 26.78870106 C532.38366986 28.22259614 532.384545 29.65649115 532.38582319 31.09038574 C532.38806572 35.03996392 532.38405015 38.98951514 532.37904513 42.93908989 C532.37473737 47.19470065 532.37618729 51.45030981 532.3769474 55.70592213 C532.37747243 63.08216876 532.37432784 70.45840658 532.36870956 77.83465099 C532.3605917 88.49953769 532.35797905 99.16442011 532.35672157 109.82930956 C532.35453151 127.13127162 532.34787264 144.43322898 532.33841896 161.73518848 C532.32924368 178.54508408 532.32216341 195.35497839 532.31791115 212.16487598 C532.31764842 213.20057528 532.3173857 214.23627457 532.31711502 215.3033587 C532.31581 220.49901951 532.31454629 225.69468033 532.31330311 230.89034116 C532.30293191 274.01172257 532.28531481 317.13309884 532.26297951 360.25447559 C531.00364319 359.63327465 529.74529179 359.01007685 528.48734474 358.38606739 C527.78649254 358.03924412 527.08564034 357.69242085 526.36355019 357.33508778 C523.24523427 355.73090935 520.30399965 353.91942744 517.32547951 352.06697559 C516.7499131 351.71183887 516.17434669 351.35670216 515.58133888 350.99080372 C511.41008257 348.40157866 511.41008257 348.40157866 510.26297951 347.25447559 C510.16636999 345.33085932 510.14110783 343.40364493 510.14272499 341.47760487 C510.14134749 340.22514438 510.13997 338.97268389 510.13855076 337.68227005 C510.14209803 336.27591842 510.14573593 334.86956702 510.14945412 333.46321583 C510.14976023 331.9712601 510.14962735 330.47930422 510.14908886 328.98734856 C510.14886235 324.97832826 510.15467397 320.96933758 510.1616993 316.96032429 C510.16737839 313.20359671 510.16766155 309.44687648 510.16837502 305.69014454 C510.1736302 294.69075094 510.18759125 283.6913629 510.20047951 272.69197559 C510.22110451 248.12760059 510.24172951 223.56322559 510.26297951 198.25447559 C459.11297951 198.25447559 407.96297951 198.25447559 355.26297951 198.25447559 C355.26297951 221.02447559 355.26297951 243.79447559 355.26297951 267.25447559 C341.26297951 260.25447559 341.26297951 260.25447559 333.26297951 255.25447559 C333.26297951 236.44447559 333.26297951 217.63447559 333.26297951 198.25447559 C282.44297951 198.25447559 231.62297951 198.25447559 179.26297951 198.25447559 C179.26297951 248.41447559 179.26297951 298.57447559 179.26297951 350.25447559 C206.65297951 350.25447559 234.04297951 350.25447559 262.26297951 350.25447559 C269.26297951 367.75447559 269.26297951 367.75447559 269.26297951 373.25447559 C239.56297951 373.25447559 209.86297951 373.25447559 179.26297951 373.25447559 C179.26297951 423.41447559 179.26297951 473.57447559 179.26297951 525.25447559 C226.12297951 525.25447559 272.98297951 525.25447559 321.26297951 525.25447559 C325.81014932 536.62240012 325.81014932 536.62240012 327.01297951 540.69197559 C327.25532326 541.49506153 327.49766701 542.29814747 327.74735451 543.12556934 C328.26297951 545.25447559 328.26297951 545.25447559 328.26297951 548.25447559 C285.72214622 548.32313531 243.18131932 548.37600113 200.6404416 548.40767158 C195.61862472 548.41142372 190.59680794 548.41530669 185.57499123 548.41927052 C184.57523376 548.42005745 183.5754763 548.42084438 182.54542315 548.42165516 C166.3553952 548.4347107 150.16539919 548.45836538 133.9753902 548.48593398 C117.36417127 548.51398402 100.75296908 548.53065101 84.14172745 548.53674108 C73.89089179 548.54085835 63.64014642 548.55386463 53.38933855 548.57822499 C46.36091915 548.59407721 39.33254645 548.59887711 32.30411047 548.59497973 C28.2484738 548.59305738 24.19299496 548.59601385 20.13738632 548.61209202 C16.4224683 548.62671191 12.70781395 548.62741451 8.99288368 548.61717228 C7.01644754 548.61530849 5.04001441 548.62822849 3.06362343 548.64171952 C-11.01001348 548.57065155 -11.01001348 548.57065155 -16.24950123 543.90871686 C-21.33857671 538.19692663 -22.03131857 532.95850473 -21.99149609 525.5561676 C-21.99470256 524.67652921 -21.99790904 523.79689082 -22.00121269 522.89059672 C-22.00954713 519.92826184 -22.00357633 516.96612732 -21.9977169 514.00378895 C-22.00073602 511.86440246 -22.00462429 509.72501706 -22.00930947 507.58563358 C-22.01962924 501.69493994 -22.01739754 495.80430689 -22.01312888 489.91360819 C-22.01066884 483.56514709 -22.01966684 477.21670084 -22.02716637 470.86824512 C-22.03993578 458.42609579 -22.04171009 445.98396866 -22.0393661 433.54181393 C-22.0375344 423.43091891 -22.03929048 413.32003023 -22.04359055 403.20913601 C-22.04419294 401.75719131 -22.04479414 400.30524661 -22.04539415 398.85330192 C-22.04630139 396.66542555 -22.04721006 394.47754918 -22.0481265 392.28967282 C-22.05655812 371.94335651 -22.06089032 351.5970426 -22.05671978 331.25072479 C-22.0565634 330.48345215 -22.05640703 329.7161795 -22.05624591 328.92565616 C-22.05544012 325.03670491 -22.05459434 321.14775367 -22.05373261 317.25880244 C-22.05356152 316.48642803 -22.05339044 315.71405362 -22.05321416 314.91827392 C-22.05286751 313.35634428 -22.05251898 311.79441464 -22.05216858 310.232485 C-22.04681155 285.92966087 -22.05474042 261.62687303 -22.07320213 237.32405567 C-22.09391432 210.02667759 -22.10464629 182.72932199 -22.10062665 155.43193561 C-22.10023129 152.52171123 -22.09986975 149.61148686 -22.09952927 146.70126247 C-22.09943853 145.98467926 -22.0993478 145.26809605 -22.09925432 144.52979819 C-22.0980879 133.70791391 -22.10474009 122.88605231 -22.11534119 112.0641737 C-22.12738487 99.75702955 -22.1286832 87.44994493 -22.11655102 75.14279898 C-22.11064764 68.86138691 -22.10960316 62.58007261 -22.12155342 56.29866695 C-22.13236253 50.55035463 -22.12936823 44.8022223 -22.11529174 39.05391858 C-22.11263105 36.97251292 -22.11505408 34.89109337 -22.1230276 32.80970129 C-22.13310601 29.98301841 -22.1247351 27.15696452 -22.1117506 24.33030701 C-22.11905995 23.52009707 -22.12636929 22.70988713 -22.13390014 21.87512538 C-22.07918278 16.13782802 -21.36888674 10.17096764 -17.35591592 5.72401009 C-11.6465029 0.79177846 -7.40647379 -0.03892815 0 0 Z " fill="#0C1213" transform="translate(79.73702049255371,65.7455244064331)"/>
<path d="M0 0 C2.44169185 1.02796814 4.68647185 2.08666707 7.01171875 3.328125 C7.69381912 3.68065842 8.37591949 4.03319183 9.07868958 4.39640808 C10.5818046 5.17341374 12.08274609 5.95463476 13.58178711 6.73947144 C17.00429343 8.52350252 20.44698132 10.26703289 23.8885498 12.01393127 C27.68903635 13.94444875 31.48419929 15.88532025 35.27954102 17.82592773 C38.16551867 19.30126296 41.05245172 20.7747162 43.93945312 22.24804688 C54.3754739 27.57908456 64.785557 32.95577306 75.15556335 38.41426086 C79.45671974 40.67704651 83.76757503 42.90913074 88.125 45.0625 C93.88202704 47.91259378 99.55893141 50.90654744 105.23876953 53.90649414 C111.64849243 57.29166426 118.07135677 60.65091104 124.5 64 C132.28202476 68.05553926 140.05480084 72.12791424 147.81665039 76.22192383 C151.97471694 78.41336655 156.13779632 80.59459139 160.30859375 82.76171875 C172.19832974 88.94029163 184.03857014 95.20487599 195.8371582 101.55541992 C201.93748648 104.83590907 208.05413096 108.07618586 214.21020508 111.25073242 C233.65519093 121.31038186 233.65519093 121.31038186 236.2421875 126.484375 C237.34560817 130.1472766 237.09507255 132.32828614 236 136 C230.66833108 142.37199456 223.36196048 144.35892824 215.74316406 147.02197266 C210.68284531 148.82614113 205.66575985 150.74614614 200.64419556 152.6550293 C198.75377777 153.37356409 196.86263542 154.09016724 194.97143555 154.80664062 C184.59575794 158.74369724 174.28114641 162.82291025 164 167 C164 170.95782286 165.24729927 171.66724162 167.9375 174.5 C172.01615651 178.89680445 175.84453783 183.42208592 179.6171875 188.08203125 C182.20755493 191.25416972 184.84668357 194.38056041 187.5 197.5 C190.92356128 201.52499773 194.29982452 205.58027105 197.625 209.6875 C200.51249827 213.23896846 203.47968021 216.6793029 206.5625 220.0625 C209.5904546 223.40387447 212.5612466 226.77669039 215.4375 230.25 C216.39462891 231.40242188 216.39462891 231.40242188 217.37109375 232.578125 C221.02429413 238.00974187 221.82476978 243.54445019 220.640625 249.94140625 C218.21151223 258.32841049 211.14498869 262.99463534 203.8215332 267.05102539 C198.13117208 270.01556549 192.49859048 272.69849524 186 271 C181.10154449 268.99340377 178.18576376 266.43878586 174.6875 262.5 C174.20949951 261.96592529 173.73149902 261.43185059 173.23901367 260.8815918 C170.32905125 257.60321834 167.54983054 254.23678514 164.8125 250.8125 C160.12734895 244.98359598 155.00974588 239.59517177 149.84692383 234.1887207 C145.98607952 230.14123797 142.23134228 226.03412232 138.59008789 221.78735352 C136.9841944 219.98223356 135.3037737 218.29902992 133.5625 216.625 C129.28339922 212.43342628 125.66282335 207.72837196 122 203 C119.5347758 205.22493 118.19004799 207.31853555 116.80078125 210.32421875 C116.40060791 211.17943115 116.00043457 212.03464355 115.58813477 212.91577148 C114.95669556 214.2877771 114.95669556 214.2877771 114.3125 215.6875 C113.41265982 217.60993784 112.51160759 219.53180879 111.609375 221.453125 C111.16529297 222.40123047 110.72121094 223.34933594 110.26367188 224.32617188 C107.97392376 229.17109485 105.56068616 233.95168318 103.14453125 238.734375 C101.47201202 242.04569008 99.83226547 245.3721714 98.19921875 248.703125 C97.71122803 249.69320557 97.2232373 250.68328613 96.72045898 251.70336914 C95.76085679 253.65077369 94.80572886 255.60039123 93.85571289 257.55249023 C87.55376524 270.29301001 87.55376524 270.29301001 81 273 C76.03390616 273.76856214 71.50968324 273.78982904 67.125 271.125 C60.92567387 265.74880065 59.28312985 255.9940945 57.0625 248.375 C49.40943631 222.76180283 40.87968343 197.41501018 32.18606567 172.13937378 C27.00406541 157.0646438 22.02960171 141.92851503 17.1184082 126.76367188 C13.37961123 115.22105433 9.59584099 103.69490785 5.75 92.1875 C5.503638 91.4502771 5.257276 90.7130542 5.00344849 89.95349121 C3.79869539 86.34952301 2.59279474 82.74594033 1.38623047 79.14257812 C0.03683733 75.11174249 -1.30844582 71.07954563 -2.65234375 67.046875 C-2.86515991 66.40863297 -3.07797607 65.77039093 -3.29724121 65.11280823 C-4.33451787 62.00115197 -5.36932219 58.88870429 -6.40087891 55.77514648 C-8.42882316 49.6627686 -10.49245241 43.56639284 -12.62109375 37.48828125 C-13.04173096 36.27148682 -13.46236816 35.05469238 -13.89575195 33.80102539 C-14.6876987 31.51326662 -15.49134423 29.22950741 -16.30932617 26.95092773 C-18.44360576 20.74224675 -20.27730382 14.596661 -19 8 C-14.16641293 0.16858447 -8.9391297 -1.29213863 0 0 Z " fill="#0B1212" transform="translate(390,352)"/>
<path d="M0 0 C51.15 0 102.3 0 155 0 C155 50.16 155 100.32 155 152 C103.85 152 52.7 152 0 152 C0 101.84 0 51.68 0 0 Z " fill="#F2EEE3" transform="translate(81,439)"/>
<path d="M0 0 C51.15 0 102.3 0 155 0 C155 50.16 155 100.32 155 152 C103.85 152 52.7 152 0 152 C0 101.84 0 51.68 0 0 Z " fill="#F2EEE3" transform="translate(81,264)"/>
<path d="M0 0 C51.15 0 102.3 0 155 0 C155 49.83 155 99.66 155 151 C103.85 151 52.7 151 0 151 C0 101.17 0 51.34 0 0 Z " fill="#F2EEE3" transform="translate(81,89)"/>
<path d="M0 0 C50.82 0 101.64 0 154 0 C154 49.83 154 99.66 154 151 C103.18 151 52.36 151 0 151 C0 101.17 0 51.34 0 0 Z " fill="#F2EEE3" transform="translate(435,89)"/>
<path d="M0 0 C50.82 0 101.64 0 154 0 C154 49.83 154 99.66 154 151 C103.18 151 52.36 151 0 151 C0 101.17 0 51.34 0 0 Z " fill="#F3EEE4" transform="translate(259,89)"/>
<path d="M0 0 C51.15 0 102.3 0 155 0 C155 50.16 155 100.32 155 152 C103.85 152 52.7 152 0 152 C0 101.84 0 51.68 0 0 Z M3 2 C3 50.51 3 99.02 3 149 C52.5 149 102 149 153 149 C153 100.49 153 51.98 153 2 C103.5 2 54 2 3 2 Z " fill="#E4E2DC" transform="translate(81,439)"/>
<path d="M0 0 C51.15 0 102.3 0 155 0 C155 50.16 155 100.32 155 152 C103.85 152 52.7 152 0 152 C0 101.84 0 51.68 0 0 Z M2 2 C2 50.84 2 99.68 2 150 C51.83 150 101.66 150 153 150 C153 101.16 153 52.32 153 2 C103.17 2 53.34 2 2 2 Z " fill="#DBDAD6" transform="translate(81,264)"/>
<path d="M0 0 C2 2 2 2 2 5 C-40.62595345 5.02287084 -83.25190619 5.04050051 -125.87786456 5.05106533 C-130.90612521 5.05231609 -135.93438585 5.05361041 -140.96264648 5.05493164 C-142.46425001 5.05532511 -142.46425001 5.05532511 -143.99618896 5.05572652 C-160.22191228 5.06008211 -176.44763207 5.06796905 -192.67335329 5.0771528 C-209.31280015 5.08649241 -225.95224516 5.09205627 -242.59169453 5.09408849 C-252.8655418 5.09546308 -263.13937909 5.09981021 -273.41322329 5.10791647 C-280.45094195 5.11318772 -287.48865543 5.11480343 -294.52637593 5.11350138 C-298.59146432 5.1128586 -302.65653524 5.11386882 -306.72162056 5.11920547 C-310.43928648 5.1240506 -314.15692307 5.12433126 -317.8745903 5.12089889 C-319.86464951 5.12027236 -321.85470835 5.12460415 -323.84476262 5.12908131 C-325.01767329 5.12709026 -326.19058395 5.12509921 -327.39903736 5.12304783 C-328.92380435 5.12361741 -328.92380435 5.12361741 -330.47937471 5.1241985 C-333 5 -333 5 -336 4 C-335.67 3.34 -335.34 2.68 -335 2 C-224.45 2.33 -113.9 2.66 0 3 C0 2.01 0 1.02 0 0 Z " fill="#171918" transform="translate(406,609)"/>
<path d="M0 0 C0.33 0 0.66 0 1 0 C1.33 8.58 1.66 17.16 2 26 C1.01 26 0.02 26 -1 26 C-0.67 17.42 -0.34 8.84 0 0 Z " fill="#141918" transform="translate(414,295)"/>
<path d="M0 0 C0.66 0 1.32 0 2 0 C1.67 0.99 1.34 1.98 1 3 C0.34 3 -0.32 3 -1 3 C-0.67 2.01 -0.34 1.02 0 0 Z M-12 3 C-8.37 3 -4.74 3 -1 3 C-1 3.33 -1 3.66 -1 4 C-4.63 4 -8.26 4 -12 4 C-12 3.67 -12 3.34 -12 3 Z " fill="#E9E6DC" transform="translate(587,621)"/>
<path d="M0 0 C2.5654594 2.5654594 2.54046087 4.47686668 3 8 C2.01 7.67 1.02 7.34 0 7 C-1.125 2.25 -1.125 2.25 0 0 Z " fill="#131817" transform="translate(390,420)"/>
</svg>
